<?xml version="1.0" standalone="no"?>
<!DOCTYPE svg PUBLIC "-//W3C//DTD SVG 20010904//EN"
 "http://www.w3.org/TR/2001/REC-SVG-20010904/DTD/svg10.dtd">
<svg version="1.0" xmlns="http://www.w3.org/2000/svg"
 width="700.000000pt" height="700.000000pt" viewBox="0 0 700.000000 700.000000"
 preserveAspectRatio="xMidYMid meet">
<metadata>
Created by potrace 1.14, written by Peter Selinger 2001-2017
</metadata>
<g transform="translate(0.000000,700.000000) scale(0.100000,-0.100000)"
fill="#000000" stroke="none">
<path d="M3278 4585 c-2 -2 -29 -6 -60 -9 -154 -18 -300 -138 -345 -283 -8
-27 -16 -57 -19 -68 -8 -34 -7 -158 1 -195 13 -62 67 -149 133 -215 36 -36 63
-67 61 -68 -2 -2 -44 -30 -94 -63 -269 -177 -386 -405 -352 -684 25 -206 152
-384 338 -472 90 -43 170 -57 304 -54 199 4 278 47 509 278 l149 148 65 -88
c203 -272 322 -365 515 -401 120 -22 246 8 340 81 93 73 247 241 247 270 0 18
-41 58 -59 58 -8 0 -44 -29 -82 -65 -99 -93 -135 -109 -239 -109 -168 -1 -268
73 -485 357 l-104 137 122 156 c285 365 438 554 470 578 58 44 102 57 225 63
64 3 118 6 120 8 9 8 7 97 -3 105 -8 7 -152 9 -406 8 l-394 -3 -3 -52 c-2 -38
1 -53 10 -55 14 -1 13 -1 79 -11 63 -10 94 -43 86 -92 -5 -31 -40 -108 -79
-176 -50 -87 -293 -419 -306 -418 -4 0 -34 34 -67 75 -103 130 -265 297 -430
445 -33 29 -60 57 -60 61 0 5 27 26 59 47 82 55 160 134 185 187 24 51 39 141
34 205 -11 149 -114 255 -285 293 -58 14 -174 27 -180 21z m122 -140 c71 -37
122 -133 122 -228 0 -104 -46 -195 -137 -274 l-47 -41 -57 39 c-66 45 -141
114 -166 153 -51 78 -47 208 8 285 68 94 175 119 277 66z m-186 -806 c136
-107 405 -376 555 -555 13 -16 33 -39 44 -51 l20 -23 -104 -102 c-150 -148
-239 -190 -388 -183 -131 6 -238 55 -340 155 -99 98 -154 229 -150 361 3 115
50 220 137 305 33 33 161 133 171 134 2 0 26 -18 55 -41z"/>
<path d="M920 4564 c-199 -30 -422 -146 -574 -298 -77 -78 -93 -97 -138 -171
-159 -263 -201 -620 -108 -919 116 -371 437 -658 815 -729 99 -19 302 -16 400
6 178 40 371 128 482 219 220 181 359 471 368 768 9 283 -81 557 -243 749
-162 190 -368 317 -597 367 -100 21 -293 26 -405 8z m236 -139 c154 -20 343
-145 439 -291 156 -234 235 -584 202 -894 -20 -193 -120 -409 -235 -511 -141
-124 -419 -189 -587 -135 -57 18 -154 74 -216 126 -100 83 -213 259 -267 415
-60 174 -78 290 -76 510 2 176 15 248 74 389 80 191 186 298 359 360 112 40
185 48 307 31z"/>
<path d="M5484 4538 c-8 -13 -7 -89 2 -98 5 -4 32 -11 59 -14 143 -16 175 -37
190 -126 7 -41 9 -1546 3 -1580 -15 -73 -58 -105 -153 -115 -92 -10 -103 -14
-107 -43 -2 -15 -1 -40 2 -57 l5 -30 85 2 c116 4 612 3 680 0 30 -2 61 -1 68
1 13 4 18 111 5 113 -5 0 -15 2 -23 3 -8 2 -41 6 -73 10 -80 8 -122 30 -143
74 -16 34 -17 102 -18 867 -1 456 0 838 2 848 4 14 16 17 82 17 154 0 261 -38
339 -119 131 -137 170 -368 98 -581 -17 -51 -34 -77 -78 -122 -67 -68 -138
-94 -263 -97 -45 -1 -85 -6 -89 -10 -5 -5 -7 -32 -5 -62 l3 -54 105 -2 c353
-5 577 135 676 422 23 67 28 244 8 318 -42 164 -138 280 -289 352 -70 33 -151
60 -212 70 -18 3 -48 8 -65 12 -43 8 -889 10 -894 1z"/>
</g>
</svg>
